<?xml version="1.0" encoding="utf-8"?>
<!-- Generator: Adobe Illustrator 16.0.0, SVG Export Plug-In . SVG Version: 6.00 Build 0)  -->
<!DOCTYPE svg PUBLIC "-//W3C//DTD SVG 1.1//EN" "http://www.w3.org/Graphics/SVG/1.1/DTD/svg11.dtd">
<svg version="1.1" id="Layer_1" xmlns="http://www.w3.org/2000/svg" xmlns:xlink="http://www.w3.org/1999/xlink" x="0px" y="0px"
	 width="500px" height="500px" viewBox="0 0 500 500" enable-background="new 0 0 500 500" xml:space="preserve">
<g>
	<path fill-rule="evenodd" clip-rule="evenodd" d="M250.75,482.409c-62.005,0.003-124.011-0.097-186.017,0.051
		c-26.252,0.062-44.917-18.199-49.719-41.561c-1.992-9.688-1.343-19.22,0.207-28.836c2.225-13.809,4.296-27.642,6.428-41.465
		c2.665-17.278,5.271-34.566,8.005-51.834c1.576-9.95,2.365-20.166,5.238-29.743c7.807-26.022,24.962-42.851,51.823-49.026
		c2.508-0.577,5.167-0.692,7.756-0.698c22.947-0.046,45.895-0.051,68.841,0.059c1.535,0.007,3.352,0.7,4.554,1.672
		c18.693,15.107,39.786,24.732,63.642,28.076c32.254,4.521,62.049-2.185,89.346-19.893c4.015-2.604,7.679-5.744,11.603-8.496
		c1.051-0.736,2.461-1.354,3.708-1.359c23.842-0.088,47.686-0.261,71.525-0.012c13.175,0.137,24.697,5.395,34.85,13.521
		c15.03,12.032,23.701,27.676,26.39,46.813c2.58,18.357,5.639,36.647,8.456,54.973c2.817,18.324,5.707,36.639,8.333,54.99
		c1.011,7.06,2.144,14.238,1.888,21.313c-0.552,15.271-5.961,28.739-17.542,39.207c-8.873,8.021-19.438,12.179-31.346,12.197
		C376.063,482.461,313.406,482.407,250.75,482.409z"/>
	<path fill-rule="evenodd" clip-rule="evenodd" d="M250.24,252.921c-61.422-0.001-111.087-49.751-111.071-111.263
		c0.016-61.333,49.846-110.916,111.443-110.887c61.144,0.028,110.742,49.93,110.707,111.381
		C361.283,203.228,311.451,252.921,250.24,252.921z"/>
</g>
</svg>
