<?xml version="1.0" encoding="utf-8"?>
<!-- Generator: Adobe Illustrator 16.0.0, SVG Export Plug-In . SVG Version: 6.00 Build 0)  -->
<!DOCTYPE svg PUBLIC "-//W3C//DTD SVG 1.1//EN" "http://www.w3.org/Graphics/SVG/1.1/DTD/svg11.dtd">
<svg version="1.1" id="Layer_1" xmlns="http://www.w3.org/2000/svg" xmlns:xlink="http://www.w3.org/1999/xlink" x="0px" y="0px"
	 width="1000px" height="720px" viewBox="0 0 1000 720" enable-background="new 0 0 1000 720" xml:space="preserve">
<g>
	<path fill-rule="evenodd" clip-rule="evenodd" d="M92.57,141.49c3.015,0.855,5.171,1.346,7.248,2.072
		c132.134,46.169,264.254,92.38,396.439,138.403c3.01,1.049,7.054,0.862,10.11-0.201c132.186-46.02,264.316-92.205,396.461-138.353
		c1.902-0.665,3.883-1.107,6.783-1.922c0,2.657,0,4.632,0,6.607c0,139.173,0.003,278.346-0.006,417.52
		c0,13.001-7.225,20.132-20.376,20.133c-258.733,0.004-517.467,0.004-776.201,0c-13.421,0-20.455-7.099-20.455-20.622
		c-0.004-138.796-0.003-277.592-0.003-416.388C92.57,146.682,92.57,144.625,92.57,141.49z"/>
	<path fill-rule="evenodd" clip-rule="evenodd" d="M108.562,120.864c261.682,0,523.362,0,785.043,0
		c0.122,0.262,0.243,0.525,0.364,0.788c-1.739,0.743-3.442,1.584-5.221,2.215c-127.478,45.257-254.956,90.518-382.487,135.62
		c-2.905,1.027-6.78,1.2-9.643,0.188C368.548,214.4,240.54,168.948,112.529,123.507c-1.386-0.492-2.726-1.117-4.088-1.679
		C108.481,121.506,108.521,121.185,108.562,120.864z"/>
</g>
</svg>
