<?xml version="1.0" encoding="utf-8"?>
<!-- Generator: Adobe Illustrator 16.0.0, SVG Export Plug-In . SVG Version: 6.00 Build 0)  -->
<!DOCTYPE svg PUBLIC "-//W3C//DTD SVG 1.1//EN" "http://www.w3.org/Graphics/SVG/1.1/DTD/svg11.dtd">
<svg version="1.1" id="Layer_1" xmlns="http://www.w3.org/2000/svg" xmlns:xlink="http://www.w3.org/1999/xlink" x="0px" y="0px"
	 width="500px" height="500px" viewBox="0 0 500 500" enable-background="new 0 0 500 500" xml:space="preserve">
<g>
	<path fill-rule="evenodd" clip-rule="evenodd" d="M72.275,228.524c0-1.117,0-1.99,0-2.864c0-13.508-0.182-27.02,0.036-40.524
		c0.682-42.384,14.351-80.106,41.509-112.688c25.432-30.51,57.667-50.329,96.322-59.509c16.778-3.984,33.817-5.361,51.07-4.261
		c39.41,2.512,74.285,16.428,104.327,41.951c30.316,25.756,49.877,58.222,58.803,97.048c3.593,15.63,4.604,31.476,4.386,47.459
		c-0.139,10.17-0.026,20.344-0.026,30.516c0,0.874,0,1.748,0,2.872c7.117,0,14.01-0.033,20.901,0.028
		c1.356,0.012,2.781,0.184,4.051,0.633c2.919,1.035,4.34,3.228,4.34,6.366c0.006,83.329,0.006,166.659,0,249.989
		c0,3.976-2.688,6.753-6.827,7.103c-0.728,0.062-1.464,0.022-2.196,0.022c-131.993,0-263.986,0.003-395.979-0.031
		c-1.668-0.001-3.441-0.212-4.981-0.804c-2.639-1.013-4.139-3.06-4.058-6.037c0.013-0.488,0.001-0.977,0.001-1.465
		c0-82.517,0-165.032,0-247.549c0-5.634,2.646-8.245,8.387-8.253C58.909,228.517,65.477,228.524,72.275,228.524z M395.509,228.479
		c0-0.766,0-1.315,0-1.864c-0.002-10.008,0.193-20.021-0.063-30.022c-0.229-8.927-0.301-17.937-1.583-26.743
		c-4.508-30.989-17.522-58.142-39.699-80.251c-37.133-37.02-81.978-50.918-133.413-40.695
		c-66.332,13.184-114.834,72.819-115.26,140.374c-0.078,12.286-0.019,24.572-0.022,36.859c0,0.769,0,1.538,0,2.343
		C202.284,228.479,298.698,228.479,395.509,228.479z"/>
</g>
</svg>
