<?xml version="1.0" encoding="utf-8"?>
<!-- Generator: Adobe Illustrator 16.0.0, SVG Export Plug-In . SVG Version: 6.00 Build 0)  -->
<!DOCTYPE svg PUBLIC "-//W3C//DTD SVG 1.1//EN" "http://www.w3.org/Graphics/SVG/1.1/DTD/svg11.dtd">
<svg version="1.1" id="Layer_1" xmlns="http://www.w3.org/2000/svg" xmlns:xlink="http://www.w3.org/1999/xlink" x="0px" y="0px"
	 width="500px" height="500px" viewBox="0 0 500 500" enable-background="new 0 0 500 500" xml:space="preserve">
<g>
	<path fill-rule="evenodd" clip-rule="evenodd" d="M381.082,164.756c0-5.723,0-11.093,0-16.463c0-6.848,0.007-13.696-0.003-20.544
		c-0.006-4.631-2.748-7.453-7.417-7.656c-0.513-0.022-1.026-0.009-1.541-0.009c-105.459,0-210.917-0.003-316.375,0.033
		c-1.67,0-3.449,0.222-4.984,0.827c-2.573,1.014-4.064,3.04-4.058,5.951c0.001,0.599,0,1.199,0,1.798c0,88.937,0,177.875,0,266.813
		c0,6.095,2.557,8.62,8.766,8.62c105.629,0.003,211.259,0.003,316.889,0c6.176,0,8.724-2.541,8.724-8.662
		c0-41.174,0.012-82.347-0.037-123.521c-0.003-2.085,0.504-3.685,1.884-5.303c8.654-10.144,17.198-20.38,25.788-30.577
		c0.355-0.422,0.807-0.763,1.622-1.521c0,1.506,0,2.496,0,3.486c0,61.118,0,122.236,0,183.354c0,6.917-3.042,9.947-10.008,9.947
		c-104.262,0.001-208.521,0.001-312.78,0.001c-20.202,0-40.403-0.012-60.605,0.011c-3.27,0.005-6.221-0.861-8.037-3.639
		c-0.915-1.398-1.404-3.337-1.406-5.031c-0.063-107-0.058-213.999-0.056-320.999c0-5.101,3.246-8.506,8.346-8.779
		c0.683-0.036,1.37-0.012,2.054-0.012c124.034,0,248.067-0.007,372.1,0.055c2.142,0.001,4.432,0.495,6.389,1.356
		c2.688,1.184,4.004,3.595,4.003,6.622c-0.006,9.33,0.019,18.66-0.037,27.991c-0.006,0.869-0.266,1.931-0.804,2.572
		c-9.221,11.006-18.503,21.96-27.774,32.924C381.674,164.461,381.581,164.484,381.082,164.756z"/>
	<path fill-rule="evenodd" clip-rule="evenodd" d="M430.832,116.505c4.483,3.776,8.985,7.57,13.487,11.363
		c7.918,6.671,15.813,13.37,23.774,19.988c1.57,1.306,1.797,2.092,0.316,3.841c-16.844,19.901-33.548,39.918-50.333,59.867
		c-21.628,25.702-43.308,51.36-64.939,77.057c-14.808,17.59-29.565,35.223-44.363,52.819c-8.47,10.075-16.922,20.164-25.525,30.124
		c-1.182,1.366-3.078,2.52-4.835,2.916c-12.051,2.716-24.155,5.188-36.231,7.786c-1.856,0.398-1.804-0.77-1.761-1.905
		c0.338-8.892,0.707-17.781,1.067-26.671c0.135-3.334,0.479-6.677,0.341-9.997c-0.093-2.294,0.82-3.861,2.188-5.479
		c12.248-14.498,24.454-29.027,36.676-43.546c21.029-24.977,42.078-49.938,63.091-74.93c22.825-27.15,45.618-54.33,68.43-81.493
		c5.936-7.068,11.887-14.125,17.836-21.18C430.209,116.88,430.457,116.77,430.832,116.505z"/>
	<path fill-rule="evenodd" clip-rule="evenodd" d="M436.578,109.348c4.505-5.331,9.087-10.705,13.613-16.125
		c2.462-2.948,4.715-6.044,8.636-7.336c4.39-1.446,8.603-1.048,12.128,1.76c7.014,5.588,13.86,11.398,20.58,17.338
		c4.875,4.31,5.386,12.46,1.292,17.499c-5.113,6.292-10.372,12.467-15.552,18.705c-0.883,1.063-1.644,1.51-2.938,0.41
		c-12.439-10.561-24.924-21.073-37.39-31.605C436.826,109.892,436.777,109.704,436.578,109.348z"/>
</g>
</svg>
