<?xml version="1.0" encoding="utf-8"?>
<!-- Generator: Adobe Illustrator 16.0.0, SVG Export Plug-In . SVG Version: 6.00 Build 0)  -->
<!DOCTYPE svg PUBLIC "-//W3C//DTD SVG 1.1//EN" "http://www.w3.org/Graphics/SVG/1.1/DTD/svg11.dtd">
<svg version="1.1" id="Layer_1" xmlns="http://www.w3.org/2000/svg" xmlns:xlink="http://www.w3.org/1999/xlink" x="0px" y="0px"
	 width="500px" height="500px" viewBox="0 0 500 500" enable-background="new 0 0 500 500" xml:space="preserve">
<g>
	<path fill-rule="evenodd" clip-rule="evenodd" fill="#FFFFFF" d="M242.196,270.99c0.791-3.069,1.304-5.013,1.794-6.963
		c4.592-18.278,8.886-36.637,13.848-54.814c5.604-20.528,24.494-34.945,45.585-34.995c54.295-0.128,108.591-0.061,162.886-0.064
		c0.408,0,0.816,0.102,1.736,0.224c-0.619,1.069-1.03,2.009-1.639,2.798c-8.475,10.988-17.043,21.906-25.426,32.964
		c-2.12,2.795-4.396,3.917-8.012,3.901c-35.826-0.154-71.652-0.11-107.479-0.09c-15.256,0.008-24.666,7.169-28.976,21.85
		c-7.221,24.602-14.504,49.186-21.709,73.792c-3.134,10.706-8.827,19.206-19.951,22.748c-11.852,3.773-24.946-1.56-32.388-13.756
		c-8.379-13.73-16.259-27.773-24.08-41.835c-9.032-16.239-17.76-32.648-26.634-48.975c-0.308-0.566-0.767-1.05-1.506-2.042
		c-0.869,1.329-1.58,2.276-2.146,3.304c-15.72,28.553-31.451,57.101-47.12,85.682c-6.041,11.02-14.628,18.04-27.751,17.997
		c-12.529-0.039-22.618-8.216-26.424-21.411c-11.486-39.821-22.918-79.657-34.374-119.487c-1.639-5.7-3.292-11.397-5.104-17.666
		c4.485,0,8.468-0.001,12.45,0c10.275,0.003,20.554,0.154,30.825-0.074c3.355-0.075,4.8,0.833,5.665,4.214
		c7.489,29.273,15.181,58.495,22.819,87.73c0.348,1.331,0.767,2.643,1.453,4.993c1.258-1.951,2.179-3.157,2.87-4.483
		c13.513-25.957,26.966-51.945,40.505-77.888c5.608-10.747,14.17-17.512,26.639-17.712c12.77-0.205,22.021,6.29,27.87,17.224
		c13.999,26.171,27.658,52.523,41.461,78.799C240.426,267.987,241.042,268.981,242.196,270.99z"/>
	<path fill-rule="evenodd" clip-rule="evenodd" fill="#FFFFFF" d="M276.694,332.64c8.069-10.604,16.005-19.916,22.625-30.087
		c5.206-8,11.29-10.502,20.787-10.297c31.643,0.685,63.31,0.407,94.964,0.106c4.629-0.044,9.722-1.358,13.745-3.611
		c6.156-3.449,5.872-10.459,0.201-14.772c-4.48-3.409-9.744-3.748-15.044-3.755c-28.185-0.038-56.37-0.025-84.556-0.027
		c-10.751,0-21.287-1.298-31.517-4.811c-3.273-1.125-4.627-2.301-3.211-6.216c2.681-7.412,4.449-15.149,6.864-22.666
		c2.578-8.023,8.263-12.85,16.723-15.164c2.94,8.611,10.083,8.828,17.351,8.827c28.463-0.005,56.927-0.099,85.389,0.049
		c13.775,0.072,26.761,3.209,37.615,12.256c19.993,16.667,22.357,47.203,5.373,68.126c-11.394,14.036-26.751,20.146-44.258,21.805
		c-2.345,0.223-4.716,0.214-7.075,0.215c-43.181,0.017-86.361,0.018-129.542,0.021C281.356,332.64,279.585,332.64,276.694,332.64z"
		/>
</g>
</svg>
