<?xml version="1.0" encoding="utf-8"?>
<!-- Generator: Adobe Illustrator 16.0.0, SVG Export Plug-In . SVG Version: 6.00 Build 0)  -->
<!DOCTYPE svg PUBLIC "-//W3C//DTD SVG 1.1//EN" "http://www.w3.org/Graphics/SVG/1.1/DTD/svg11.dtd">
<svg version="1.1" xmlns="http://www.w3.org/2000/svg" xmlns:xlink="http://www.w3.org/1999/xlink" x="0px" y="0px" width="500px"
	 height="500px" viewBox="0 0 500 500" enable-background="new 0 0 500 500" xml:space="preserve">
<g id="Layer_2" display="none">
	<ellipse display="inline" fill="#F15A29" stroke="#000000" stroke-miterlimit="10" cx="197" cy="262" rx="532" ry="355"/>
</g>
<g id="Layer_1">
	<g>
		<path fill-rule="evenodd" clip-rule="evenodd" fill="#FFFFFF" d="M250.841,39.551c114.143,0.054,206.724,92.671,206.68,206.891
			c-0.043,114.093-92.73,207.078-207.623,206.68c-113.353-0.393-206.838-92.712-205.935-208.6
			C44.842,131.749,136.55,39.574,250.841,39.551z"/>
		<path fill-rule="evenodd" clip-rule="evenodd" fill="#010101" d="M54.635,241.207c0.721-45.513,17.788-90.311,52.583-128.017
			c27.207-29.482,60.582-48.661,99.595-57.862c18.438-4.349,37.172-5.855,56.13-4.65c45.116,2.868,84.723,19.187,118.541,49.059
			c30.904,27.296,51.146,61.23,60.895,101.334c4.894,20.13,6.534,40.573,4.797,61.199c-3.607,42.823-19.388,80.622-47.436,113.246
			c-6.697,7.791-14.037,14.926-21.827,21.615c-1.215,1.042-1.963,1.247-3.357,0.118c-24.736-20.038-52.748-33.257-83.906-39.654
			c-18.565-3.813-37.33-4.886-56.256-3.208c-39.865,3.534-75.353,17.868-106.534,42.891c-1.451,1.165-2.196,0.819-3.358-0.174
			c-29.545-25.271-50.17-56.4-61.503-93.623C57.383,285.036,54.724,266.144,54.635,241.207z"/>
		<path fill-rule="evenodd" clip-rule="evenodd" fill="#FFFFFF" d="M336.353,223.414c3.188,10.801,4.185,21.797,3.097,33.009
			c-2.122,21.882-11.13,40.486-26.922,55.675c-13.97,13.438-30.688,21.387-49.978,23.902c-44.532,5.809-85.428-22.561-96.654-64.026
			c-7.878-29.103-2.082-55.676,16.25-79.558c1.007-0.945,2.16-0.497,3.242-0.272c19.512,4.046,39.028,8.072,58.537,12.133
			c14.014,2.918,28.034,5.807,42.047,8.733c14.889,3.109,29.792,6.149,44.675,9.281C332.545,222.69,334.545,222.571,336.353,223.414
			z"/>
		<path fill-rule="evenodd" clip-rule="evenodd" fill="#4FB849" d="M336.353,223.414c-3.747,0.715-7.23-0.74-10.765-1.46
			c-27.289-5.569-54.555-11.252-81.825-16.911c-19.9-4.129-39.797-8.277-59.698-12.407c-0.628-0.13-1.279-0.149-1.919-0.22
			c-5.092-1.585-10.378-2.29-15.566-3.44c-5.365-1.188-10.77-2.201-16.123-3.44c-4.143-0.958-5.27-2.845-4.468-7.005
			c0.444-2.301,0.98-4.583,1.447-6.879c0.705-3.469,2.989-5.132,6.44-4.431c11.884,2.412,23.76,4.86,35.626,7.359
			c4.545,0.957,4.477,1.011,6.518-3.244c3.578-7.456,9.479-12.656,16.532-16.67c9.139-5.203,19.047-7.962,29.438-9.215
			c22.205-2.68,43.443,0.654,63.604,10.347c10.159,4.885,19.114,11.408,25.477,20.919c5.481,8.195,7.258,17.063,3.838,26.581
			c-0.404,1.126-0.045,1.454,0.865,1.622c1.045,0.192,2.056,0.452,2.976,0.996c2.057,1.216,3.272,2.756,2.605,5.382
			c-0.674,2.66-1.13,5.379-1.615,8.083C339.375,221.401,338.286,222.746,336.353,223.414z"/>
		<path fill-rule="evenodd" clip-rule="evenodd" fill="#4EB648" d="M350.313,195.531c1.553,2.205,2.946,4.178,4.333,6.157
			c0.37,0.528,0.55,1.116-0.255,1.347c-3.78,1.088-7.573,2.128-11.672,2.75C345.197,202.438,347.677,199.091,350.313,195.531z"/>
	</g>
</g>
</svg>
