<?xml version="1.0" encoding="utf-8"?>
<!-- Generator: Adobe Illustrator 16.0.0, SVG Export Plug-In . SVG Version: 6.00 Build 0)  -->
<!DOCTYPE svg PUBLIC "-//W3C//DTD SVG 1.1//EN" "http://www.w3.org/Graphics/SVG/1.1/DTD/svg11.dtd">
<svg version="1.1" id="Layer_1" xmlns="http://www.w3.org/2000/svg" xmlns:xlink="http://www.w3.org/1999/xlink" x="0px" y="0px"
	 width="500px" height="500px" viewBox="0 0 500 500" enable-background="new 0 0 500 500" xml:space="preserve">
<g>
	<path fill-rule="evenodd" clip-rule="evenodd" fill="#FFFFFF" d="M313.924,361.326c-34.219-0.997-68.526-1.997-103.284-3.011
		c0.389,1.107,0.638,1.91,0.95,2.69c13.747,34.287-7.347,71.697-43.775,77.627c-29.647,4.825-58.807-15.879-64.121-45.524
		c-5.567-31.064,14.004-59.844,44.954-65.976c2.025-0.402,2.35-1.365,2.347-3.12c-0.031-12.371,0.013-24.74,0.023-37.111
		c0.009-11.009,4.386-15.474,15.303-15.583c0.701-0.007,1.402-0.002,2.662-0.002c-3.432-28.45-6.809-56.641-10.237-84.826
		c-3.436-28.246-6.923-56.485-10.415-84.963c-10.669,0-21.337,0-32.398,0c0.5,5.274,0.751,10.548,1.585,15.729
		c0.518,3.224-0.728,5.199-3.186,6.585c-1.741,0.982-3.723,1.893-5.671,2.086c-6.052,0.599-12.157,1.298-18.209,1.076
		c-4.834-0.177-6.297-2.192-6.809-6.99c-1.276-11.973-2.676-23.939-3.538-35.943c-0.245-3.402,0.637-7.159,1.985-10.337
		c1.963-4.631,6.218-6.672,11.169-6.684c25.764-0.062,51.528-0.063,77.291-0.005c5.956,0.014,10.782,5.518,11.669,12.895
		c2.679,22.279,5.41,44.552,7.995,66.841c0.297,2.567,1.796,2.245,3.414,2.226c21.771-0.261,43.542-0.556,65.314-0.781
		c36.288-0.375,72.577-0.697,108.864-1.065c6.028-0.061,12.061-0.477,18.077-0.283c3.298,0.106,6.731,0.704,9.809,1.862
		c4.695,1.769,6.5,5.53,6.105,10.501c-1.241,15.675-2.404,31.356-3.628,47.032c-1.55,19.85-3.182,39.694-4.665,59.549
		c-0.501,6.714-0.951,13.455-0.902,20.181c0.073,10.036-4.421,15.041-14.594,15.294c-10.935,0.273-21.87,0.426-32.808,0.609
		c-51.408,0.864-102.817,1.72-154.226,2.583c-0.706,0.013-1.41,0.071-2.362,0.121c0,6.361,0,12.643,0,19.257
		c3.968,0.199,8.106,0.487,12.249,0.602c25.543,0.711,51.088,1.349,76.63,2.077c23.191,0.661,46.38,1.439,69.572,2.062
		c2.087,0.057,4.225-0.516,6.283-1.019c30.813-7.518,62.062,12.757,67.624,43.906c5.582,31.265-14.981,60.257-46.319,65.312
		c-30.888,4.982-60.867-18.317-63.701-49.268c-0.75-8.205,0.214-16.059,2.654-23.83c0.18-0.574,0.319-1.161,0.463-1.744
		C314.088,361.874,314.025,361.765,313.924,361.326z M194.734,183.136c3.569,29.357,7.101,58.411,10.654,87.635
		c51.766-0.915,103.108-1.823,154.658-2.733c2.212-29.018,4.399-57.737,6.603-86.671
		C309.093,181.959,252.132,182.546,194.734,183.136z M365.92,360.803c-11.729-0.062-21.019,8.903-21.118,20.38
		c-0.104,11.976,8.825,21.361,20.382,21.426c12.016,0.069,21.364-8.826,21.425-20.384
		C386.671,370.068,377.784,360.865,365.92,360.803z M158.422,360.803c-11.835-0.016-20.978,9.053-20.988,20.816
		c-0.008,11.844,9.053,20.98,20.816,20.989c11.84,0.01,20.974-9.048,20.991-20.816C179.257,369.955,170.196,360.819,158.422,360.803
		z"/>
</g>
</svg>
