<?xml version="1.0" encoding="utf-8"?>
<!-- Generator: Adobe Illustrator 16.0.0, SVG Export Plug-In . SVG Version: 6.00 Build 0)  -->
<!DOCTYPE svg PUBLIC "-//W3C//DTD SVG 1.1//EN" "http://www.w3.org/Graphics/SVG/1.1/DTD/svg11.dtd">
<svg version="1.1" id="Layer_1" xmlns="http://www.w3.org/2000/svg" xmlns:xlink="http://www.w3.org/1999/xlink" x="0px" y="0px"
	 width="500px" height="500px" viewBox="0 0 500 500" enable-background="new 0 0 500 500" xml:space="preserve">
<g>
	<path fill-rule="evenodd" clip-rule="evenodd" d="M308.503,298.474c12.28,15.077,24.454,30.024,36.63,44.971
		c21.525,26.426,43.062,52.845,64.573,79.281c4.328,5.319,3.744,12.458-1.261,16.555c-5.143,4.208-12.26,3.361-16.663-2.043
		c-33.556-41.179-67.1-82.366-100.646-123.553c-0.562-0.689-1.095-1.402-1.686-2.162c-39.647,20.681-80.216,23.288-121.313,5.223
		c-31.013-13.634-53.594-36.396-67.703-67.203c-28.354-61.912-5.674-135.235,52.611-170.838
		c58.026-35.445,133.573-21.779,176.062,31.508C372.394,164.5,368.363,249.616,308.503,298.474z M102.194,193.757
		c-0.114,66.674,54.248,121.006,121.039,120.975c66.683-0.032,120.894-53.999,121.026-120.48
		c0.133-66.873-53.872-121.196-120.654-121.363C156.66,72.721,102.309,126.828,102.194,193.757z"/>
</g>
</svg>
